<svg width="58" height="58" viewBox="0 0 58 58" xmlns="http://www.w3.org/2000/svg">
    <defs>
        <linearGradient x1="50%" y1="0%" x2="50%" y2="100%" id="m0d4rq3g9a">
            <stop stop-color="#FFF" offset="0%"/>
            <stop stop-color="#FFFAED" offset="100%"/>
        </linearGradient>
    </defs>
    <g transform="translate(0 .204)" fill="none" fill-rule="evenodd">
        <circle fill="url(#m0d4rq3g9a)" cx="28.8" cy="28.8" r="28.8"/>
        <path d="M29 22.333c6.443 0 11.667 5.224 11.667 11.667S35.443 45.667 29 45.667 17.333 40.443 17.333 34 22.557 22.333 29 22.333zm0 5a3.333 3.333 0 0 0-1.652 6.229c-.01.143-.015.29-.015.438 0 1.84.747 3.333 1.667 3.333s1.667-1.492 1.667-3.333c0-.149-.005-.296-.014-.438A3.333 3.333 0 0 0 29 27.333zm11.667-9.41C40.667 17.003 35.443 14 29 14s-11.667 3.002-11.667 3.923c0 .92 3.334-.59 11.667-.59s11.667 1.51 11.667.59z" fill="#FF664D"/>
    </g>
</svg>
