<svg width="58" height="58" viewBox="0 0 58 58" xmlns="http://www.w3.org/2000/svg">
    <defs>
        <linearGradient x1="50%" y1="0%" x2="50%" y2="100%" id="xdi1n4r5ra">
            <stop stop-color="#FFF" offset="0%"/>
            <stop stop-color="#F6F0FF" offset="100%"/>
        </linearGradient>
    </defs>
    <g transform="translate(0 .204)" fill="none" fill-rule="evenodd">
        <circle fill="url(#xdi1n4r5ra)" cx="28.8" cy="28.8" r="28.8"/>
        <path d="M24.071 27.412A13.278 13.278 0 0 0 22.333 34a13.3 13.3 0 0 0 4.493 9.981c-7.029.228-14.493-1.623-14.493-5.553 0-5.756 5.179-10.366 11.738-11.016zM35.667 24c5.522 0 10 4.477 10 10s-4.478 10-10 10c-5.523 0-10-4.477-10-10s4.477-10 10-10zm0 5c-.92 0-1.667.746-1.667 1.667v1.666h-1.667c-.872 0-1.587.67-1.66 1.523l-.006.144c0 .92.746 1.667 1.666 1.667L34 35.666v1.667c0 .872.67 1.588 1.523 1.66l.144.007c.92 0 1.666-.746 1.666-1.667v-1.667H39c.872 0 1.588-.67 1.66-1.522l.007-.144c0-.92-.747-1.667-1.667-1.667h-1.667v-1.666c0-.872-.67-1.588-1.523-1.66L35.667 29zm-9.928-16.667a6.667 6.667 0 0 1 6.307 8.832 13.342 13.342 0 0 0-6.775 4.485 6.666 6.666 0 0 1 .468-13.317z" fill="#A4A8FF" fill-rule="nonzero"/>
    </g>
</svg>
