<svg width="58" height="58" viewBox="0 0 58 58" xmlns="http://www.w3.org/2000/svg">
    <defs>
        <linearGradient x1="50%" y1="0%" x2="50%" y2="100%" id="2zp8loii8a">
            <stop stop-color="#FFF" offset="0%"/>
            <stop stop-color="#F6F0FF" offset="100%"/>
        </linearGradient>
    </defs>
    <g transform="translate(0 .204)" fill="none" fill-rule="evenodd">
        <circle fill="url(#2zp8loii8a)" cx="28.8" cy="28.8" r="28.8"/>
        <path d="M32.099 42.108c.19 2.758-1.12 5.096-2.926 5.22-1.806.125-3.424-2.01-3.614-4.769-.19-2.758 1.12-5.096 2.925-5.22 1.807-.125 3.425 2.01 3.615 4.769m-16.637-.058c-1.324-.629-1.36-3.326-.08-6.024s3.39-4.375 4.714-3.747c1.323.629 1.359 3.326.079 6.024s-3.39 4.375-4.713 3.747m-4.776-18.373c.243-1.224 2.668-1.698 5.419-1.06 2.75.639 4.784 2.149 4.542 3.373-.242 1.223-2.668 1.698-5.419 1.06-2.75-.639-4.784-2.149-4.542-3.373m10.26-12.974c.634-.33 2.142 1.623 3.368 4.364 1.227 2.741 1.707 5.232 1.073 5.563-.634.331-2.142-1.622-3.368-4.363-1.226-2.742-1.707-5.233-1.073-5.564M47.881 24.06a5 5 0 1 1-9.786 2.049 4.999 4.999 0 1 1 9.786-2.049zm-8.733-12.107c.561.465-.494 2.668-2.357 4.922-1.864 2.253-3.83 3.702-4.39 3.237-.563-.465.492-2.669 2.356-4.922 1.863-2.253 3.829-3.702 4.39-3.237zM42.539 33.1c2.332 1.93 2.898 5.096 1.266 7.07-1.633 1.974-4.846 2.01-7.177.078-2.332-1.93-2.898-5.096-1.266-7.07 1.632-1.974 4.846-2.009 7.177-.078" fill="#6064E7"/>
    </g>
</svg>
