<svg id="Layer_1" data-name="Layer 1" xmlns="http://www.w3.org/2000/svg" viewBox="0 0 72 72"><circle cx="36" cy="36" r="36" style="fill:#fff"/><path d="M43.69,57.31c2.28,0,4.12-3.23,4.12-7.22S46,42.87,43.69,42.87s-4.13,3.23-4.13,7.22S41.41,57.31,43.69,57.31Zm6.19-16.5c2.27,0,4.12-5.54,4.12-12.37s-1.85-12.38-4.12-12.38-4.13,5.54-4.13,12.38S47.6,40.81,49.88,40.81Zm-8.25-2.09c1.3-3.77-2.88-8.63-9.34-10.86s-12.76-1-14,2.8,2.88,8.63,9.35,10.85S40.34,42.49,41.63,38.72Z" transform="translate(0 0)" style="fill:#4eb700;fill-rule:evenodd"/></svg>