<svg id="Layer_1" data-name="Layer 1" xmlns="http://www.w3.org/2000/svg" xmlns:xlink="http://www.w3.org/1999/xlink" viewBox="0 0 72 72"><defs><linearGradient id="linear-gradient" x1="-248.79" y1="158.12" x2="-248.79" y2="158.7" gradientTransform="matrix(21.02, 0, 0, -36, 5265.79, 5744)" gradientUnits="userSpaceOnUse"><stop offset="0" stop-color="#419700"/><stop offset="1" stop-color="#75de26"/></linearGradient></defs><circle cx="36" cy="36" r="36" style="fill:#fff"/><path id="p675p4t9ca" d="M37.44,40.89c3.84-1.53,6.91-2.14,9.19-1.85L36,54,26.71,40.81A12.93,12.93,0,0,0,37.44,40.89Zm-1.4-25,10.8,17.91a22,22,0,0,0-4.64-.11c-6,.32-7.13,1.89-11.88,1.89-2.86,0-4.76-.25-5.68-.77Z" transform="translate(0 0)" style="fill:#6064e7;fill-rule:evenodd"/><path id="p675p4t9ca-2" data-name="p675p4t9ca" d="M37.44,40.89c3.84-1.53,6.91-2.14,9.19-1.85L36,54,26.71,40.81A12.93,12.93,0,0,0,37.44,40.89Zm-1.4-25,10.8,17.91a22,22,0,0,0-4.64-.11c-6,.32-7.13,1.89-11.88,1.89-2.86,0-4.76-.25-5.68-.77Z" transform="translate(0 0)" style="fill-opacity:0.800000011920929;fill-rule:evenodd;fill:url(#linear-gradient)"/><path d="M26.71,40.81a12.6,12.6,0,0,0,9.54.5V53.66L36,54ZM36,15.94l.21.35V34.68a20.1,20.1,0,0,1-5.94,1c-2.86,0-4.75-.25-5.67-.77Z" transform="translate(0 0)" style="fill:#6dd420"/></svg>